<?xml version="1.0" encoding="utf-8"?>
<!-- Generator: Adobe Illustrator 19.0.0, SVG Export Plug-In . SVG Version: 6.00 Build 0)  -->
<svg version="1.1" id="layer" xmlns="http://www.w3.org/2000/svg" xmlns:xlink="http://www.w3.org/1999/xlink" x="0px" y="0px"
	 viewBox="-153 -46 652 652" style="enable-background:new -153 -46 652 652;" xml:space="preserve">
<style type="text/css">
	.st0{fill:#F3924E;}
	.st1{fill:#F5A571;}
	.st2{fill:#0D3048;}
</style>
<polygon id="XMLID_43_" class="st0" points="-50.5,274.3 -128.5,363 -109.8,363 -29.3,274.3 -29.3,274.3 "/>
<polygon id="XMLID_42_" class="st1" points="-31.2,185.5 -52.4,185.5 28.1,274.3 49.4,274.3 "/>
<polygon id="XMLID_41_" class="st0" points="28.1,274.3 28.1,274.3 -38.1,347.3 -56.2,347.3 10,274.3 -11.2,274.3 -77.5,347.3 
	-91.7,363 -31.2,363 -16.9,347.3 49.4,274.3 "/>
<polygon id="XMLID_40_" class="st1" points="-56.2,201.3 -70.5,185.5 -131.1,185.5 -116.8,201.3 -50.5,274.3 -29.3,274.3 
	-95.5,201.3 -77.5,201.3 -11.2,274.3 10.1,274.3 "/>
<path id="XMLID_1_" class="st2" d="M73.8,248.1l15.1-8.8c2.7,6.3,7.4,10.6,16.1,10.6c8.3,0,10.4-3.3,10.4-6.2
	c0-4.7-4.4-6.6-15.9-9.7c-11.4-3.2-22.5-8.6-22.5-23.3c0-14.8,12.5-23.3,25.7-23.3c12.6,0,22.4,6,28,17.3l-14.8,8.6
	c-2.6-5.5-6.2-8.9-13.2-8.9c-5.5,0-8.2,2.7-8.2,5.8c0,3.5,1.9,5.9,13.8,9.5c11.6,3.5,24.6,7.6,24.6,23.8c0,14.8-11.8,23.5-28.5,23.5
	C88.3,267.1,78,259.4,73.8,248.1 M193.6,265.5l-20.5-27.4l19.9-27.4h-19.2l-16.4,24v-45.9h-16.4v76.6h16.4v-24.2l17.5,24.2H193.6z
	 M199.6,265.5h16.4v-54.7h-16.4V265.5z M198,196.1c0,5.4,4.5,9.9,9.8,9.9c5.4,0,9.9-4.5,9.9-9.9c0-5.4-4.5-9.8-9.9-9.8
	C202.5,186.3,198,190.8,198,196.1 M228.1,265.5h16.4v-79.9h-16.4V265.5z M256.6,265.5H273v-79.9h-16.4V265.5z M326.9,249.1
	c0-20.2-26.9-16.1-26.9-22.3c0-2,1.8-3.1,4.6-3.1c3.6,0,5.8,2,7.3,4.8l14-7.6c-4.6-7.8-12.5-11.7-21.3-11.7c-11.4,0-21.4,6-21.4,18
	c0,18.9,26.9,15.8,26.9,21.8c0,2.2-2,3.4-5.9,3.4c-4.8,0-7.9-2.3-9.3-6.5l-14.2,8.1c4.3,8.9,12.6,13,23.5,13
	C316,267.1,326.9,261.7,326.9,249.1 M118.3,309.3c0,10.5-7.5,18.2-18.1,18.2H79.9v-36.5h20.2C110.7,291.1,118.3,298.7,118.3,309.3
	 M124.1,309.3c0-13.6-10.1-23.8-23.9-23.8h-26v76.6h5.8V333h20.2C114,333,124.1,322.8,124.1,309.3 M181.1,334.8
	c0,13-10.1,23.3-23.1,23.3c-13,0-23.2-10.3-23.2-23.3c0-13,10.2-23.3,23.2-23.3C171,311.5,181.1,321.8,181.1,334.8 M129.2,334.8
	c0,16.2,12.8,28.6,28.8,28.6c15.9,0,28.7-12.4,28.7-28.6c0-16.2-12.8-28.6-28.7-28.6C142,306.3,129.2,318.6,129.2,334.8
	 M223.6,306.7c-7.4,0-14.6,2.8-18.3,11.5v-10.7h-5.5v54.7h5.5v-30.4c0-14,8.9-19.8,18.3-19.8V306.7 M263.4,312.8v-5.4h-16.3v-15.3
	l-5.6,1.6v13.7h-12v5.4h12v35.6c0,12.5,7.6,16,21.9,13.8v-4.9c-11.2,1-16.3,0.8-16.3-8.9v-35.6H263.4z M282.5,304.5
	c0-10.6,5.1-15.8,16.3-14.9v-5.3c-14.3-1.1-21.9,6.7-21.9,20.1v3h-9.4v5.4h9.4v49.4h5.6v-49.4h16.3v-5.4h-16.3V304.5 M351.8,334.8
	c0,13-10.1,23.3-23.1,23.3c-13,0-23.2-10.3-23.2-23.3c0-13,10.2-23.3,23.2-23.3C341.8,311.5,351.8,321.8,351.8,334.8 M299.9,334.8
	c0,16.2,12.8,28.6,28.8,28.6c15.9,0,28.7-12.4,28.7-28.6c0-16.2-12.8-28.6-28.7-28.6C312.7,306.3,299.9,318.6,299.9,334.8
	 M370.5,362.2h5.5v-79.9h-5.5V362.2z M392.9,362.2h5.5v-54.7h-5.5V362.2z M391.2,289.9c0,2.4,2,4.4,4.4,4.4c2.4,0,4.4-2,4.4-4.4
	c0-2.3-2-4.3-4.4-4.3C393.2,285.6,391.2,287.6,391.2,289.9 M463.4,334.8c0,13-10.1,23.3-23.1,23.3c-13,0-23.2-10.3-23.2-23.3
	c0-13,10.2-23.3,23.2-23.3C453.3,311.5,463.4,321.8,463.4,334.8 M411.5,334.8c0,16.2,12.8,28.6,28.8,28.6
	c15.9,0,28.7-12.4,28.7-28.6c0-16.2-12.8-28.6-28.7-28.6C424.3,306.3,411.5,318.6,411.5,334.8"/>
</svg>
